# xmcd CD database file
#
# Track frame offsets:
#	150
#	19407
#	42492
#	55350
#	69395
#	100850
#	112477
#	122412
#	143902
#	162400
#
# Disc length: 2325 seconds
#
# Revision: 0
# Processed by: cddbd v1.5.2PL0 Copyright (c) Steve Scherf et al.
# Submitted via: CDex 1.40Release
#
DISCID=9409130a
DTITLE=The Aynsley Lister Band - Messin' With The Kid
DYEAR=1996
DGENRE=Blues
TTITLE0=Messin' With The Kid
TTITLE1=Voodoo Chile (Slight Return)
TTITLE2=I'm Tore Down
TTITLE3=Walkin' Blues
TTITLE4=Tin Pan Alley
TTITLE5=Stop messin' Round
TTITLE6=Scuttle Buttin'
TTITLE7=The Sky is Cryin'
TTITLE8=Continental Op
TTITLE9=Come Go home With Me
EXTD=YEAR: 1996 ID3G: 0
EXTT0=
EXTT1=
EXTT2=
EXTT3=
EXTT4=
EXTT5=
EXTT6=
EXTT7=
EXTT8=
EXTT9=
PLAYORDER=
